<?xml version="1.0" standalone="no"?>
<!DOCTYPE svg PUBLIC "-//W3C//DTD SVG 1.1//EN" "http://www.w3.org/Graphics/SVG/1.1/DTD/svg11.dtd" >
<svg xmlns="http://www.w3.org/2000/svg">
<metadata>
This is a custom SVG font generated by IcoMoon.
<iconset grid="16"></iconset>
</metadata>
<defs>
<font id="eightyshades" horiz-adv-x="512" >
<font-face units-per-em="512" ascent="480" descent="-32" />
<missing-glyph horiz-adv-x="512" />
<glyph class="hidden" unicode="&#xf000;" d="M0,480L 512 -32L0 -32 z" horiz-adv-x="0" />
<glyph unicode="&#xe000;" d="M 480 32 l -32 0 l 0 64 c 0 17.672 -14.312 32 -32 32 s -32 -14.328 -32 -32 l 0 -64 L 128 32 l 0 64 c 0 17.672 -14.312 32 -32 32 s -32 -14.328 -32 -32 l 0 -64 L 32 32 c -17.688 0 -32 -14.328 -32 -32 s 14.312 -32 32 -32 l 448 0 c 17.688 0 32 14.328 32 32 S 497.688 32 480 32 Z M 480 480 L 32 480 C 14.312 480 0 465.672 0 448 l 0 -192 c 0 -35.344 28.656 -64 64 -64 s 64 28.656 64 64 c 0 -35.344 28.656 -64 64 -64 s 64 28.656 64 64 c 0 -35.344 28.656 -64 64 -64 s 64 28.656 64 64 c 0 -35.344 28.656 -64 64 -64 s 64 28.656 64 64 L 512 448 C 512 465.672 497.688 480 480 480 Z" data-tags="store, purchase, buy, ecommerce" />
<glyph unicode="&#xe001;" d="M 480 256 c -17.688 0 -32 -14.328 -32 -32 l 0 -192 L 64 32 L 64 224 c 0 17.672 -14.312 32 -32 32 S 0 241.672 0 224 l 0 -224 c 0 -17.672 14.312 -32 32 -32 l 448 0 c 17.688 0 32 14.328 32 32 L 512 224 C 512 241.672 497.688 256 480 256 Z M 224 160 c 0 -17.672 14.312 -32 32 -32 s 32 14.328 32 32 L 288 352 l 96 0 L 256 480 L 128 352 l 96 0 L 224 160 Z" data-tags="out, upload, load, outbox" />
<glyph unicode="&#xe002;" d="M 480 256 c -17.688 0 -32 -14.328 -32 -32 l 0 -192 L 64 32 L 64 224 c 0 17.672 -14.312 32 -32 32 S 0 241.672 0 224 l 0 -224 c 0 -17.672 14.312 -32 32 -32 l 448 0 c 17.688 0 32 14.328 32 32 L 512 224 C 512 241.672 497.688 256 480 256 Z M 288 256 L 288 451.909 C 288 467.422 273.688 480 256 480 s -32 -12.578 -32 -28.091 L 224 256 l -96 0 l 128 -128 l 128 128 L 288 256 Z" data-tags="in, download, store, save, inbox" />
<glyph unicode="&#xe003;" d="M 480 480 L 256 480 c -17.688 0 -32 -14.328 -32 -32 s 14.312 -32 32 -32 l 192 0 l 0 -384 L 256 32 c -17.688 0 -32 -14.328 -32 -32 s 14.312 -32 32 -32 l 224 0 c 17.688 0 32 14.328 32 32 L 512 448 C 512 465.672 497.688 480 480 480 Z M 224 96 l 128 128 L 224 352 l 0 -96 L 28.591 256 C 12.788 256 0 241.672 0 224 s 12.788 -32 28.591 -32 L 224 192 L 224 96 Z" data-tags="in-alt, right, enter, sign in, login" />
<glyph unicode="&#xe004;" d="M 502.688 281.516 L 313.579 470.609 c -7.217 7.248 -16.901 10.044 -26.368 9.263 l -62.422 0 c -9.466 0.781 -19.151 -2.015 -26.368 -9.263 l -38.396 -38.397 L 160.025 479.872 L 64.049 479.872 l 0 -143.636 L 9.312 281.516 c -7.248 -7.248 -10.028 -16.917 -9.247 -26.368 l 0 -63.202 c 0 -17.668 14.309 -31.993 31.991 -31.993 l 31.992 0 l 0 -159.959 c 0 -17.668 14.309 -31.992 31.992 -31.992 L 415.96 -31.998 c 17.683 0 31.992 14.324 31.992 31.992 L 447.952 159.952 l 31.991 0 c 17.684 0 31.992 14.325 31.992 31.993 l 0 63.202 C 512.717 264.599 509.937 274.268 502.688 281.516 Z M 447.952 223.937 l -63.984 0 l 0 -191.951 l -63.983 0 L 319.985 159.952 L 192.017 159.952 l 0 -127.967 l -63.984 0 L 128.033 223.937 L 64.049 223.937 l 0 17.746 L 238.255 415.889 l 35.491 0 l 174.206 -174.206 L 447.952 223.937 Z" data-tags="home, house, building" />
<glyph unicode="&#xe005;" d="M 272 480 l -32 0 C 142.781 480 64 401.203 64 304 c 0 -68.398 39.009 -127.682 96 -156.812 L 160 128 c 0 -17.672 14.312 -32 32 -32 l 128 0 c 17.688 0 32 14.328 32 32 l 0 19.195 c 56.982 29.133 96 88.412 96 156.805 C 448 401.203 369.188 480 272 480 Z M 288 193.143 L 288 160 l -64 0 l 0 33.143 c -54.267 7.766 -96 54.433 -96 110.857 c 0 61.859 50.156 112 112 112 l 32 0 c 61.844 0 112 -50.141 112 -112 C 384 247.575 342.267 200.908 288 193.143 Z M 208 64 l 96 0 c 8.844 0 16 -7.172 16 -16 s -7.156 -16 -16 -16 l -96 0 c -8.844 0 -16 7.172 -16 16 S 199.156 64 208 64 Z M 240 0 l 32 0 c 8.844 0 16 -7.172 16 -16 s -7.156 -16 -16 -16 l -32 0 c -8.844 0 -16 7.172 -16 16 S 231.156 0 240 0 Z" data-tags="light bulb, idea, bulb" />
<glyph unicode="&#xe006;" d="M 472.934 71.086 C 425.871 7.322 343.936 -32.739 256 -31.989 c -87.936 -0.75 -169.872 39.312 -216.934 103.075 L 0.005 32.009 L 0.005 160.006 l 127.997 0 l -35.187 -35.17 c 28.219 -46.719 75.437 -80.296 131.185 -89.812 L 224 228.537 c -55.123 14.265 -95.998 63.889 -95.998 123.466 C 128.002 422.688 185.314 480 256 480 c 70.685 0 127.998 -57.312 127.998 -127.998 c 0 -59.577 -40.875 -109.201 -95.998 -123.466 l 0 -193.512 c 55.748 9.516 102.967 43.093 131.184 89.812 l -35.186 35.17 l 127.996 0 l 0 -127.997 L 472.934 71.086 Z M 319.998 352.002 c 0 35.343 -28.654 63.999 -63.998 63.999 c -35.344 0 -63.999 -28.656 -63.999 -63.999 c 0 -35.343 28.655 -63.999 63.999 -63.999 C 291.344 288.004 319.998 316.66 319.998 352.002 Z" data-tags="anchor, link" />
<glyph unicode="&#xe007;" d="M 433.206 437.378 c -17.889 9.862 -67.2 34.145 -99.369 40.817 c -33.414 6.938 -83.13 -123.527 -98.935 -124.103 C 209.267 353.175 231.791 443.164 256.151 480 c -38.019 -25.387 -105.561 -59.47 -121.365 -98.67 c -30.552 -75.756 56.622 -212.086 10.111 -219.926 c -14.498 -2.442 -54.663 94.019 -65.085 123.449 c -29.463 -56.312 -7.28 -109.029 17.08 -174.893 l 0 -4.09 c -0.934 -3.562 -1.742 -6.97 -2.583 -10.438 l 2.583 0 l 0 -95.574 c 0 -17.609 14.249 -31.858 31.857 -31.858 c 17.609 0 31.858 14.249 31.858 31.858 l 0 95.574 l 0 1.011 c 59.454 6.689 87.423 -12.802 128.147 64.416 c -24.857 -10.281 -74.48 21.047 -64.183 35.841 c 20.689 29.773 105.281 -1.681 159.197 89.834 c -85.339 -22.742 -95.419 9.862 -96.228 21.747 c -1.711 24.608 85.308 11.573 124.975 45.78 C 435.509 373.895 463.073 420.889 433.206 437.378 Z" data-tags="feather, quill, write, blog" />
<glyph unicode="&#xe008;" d="M 178.375 192.188 L 73.094 86.906 L 32 128 c -17.688 0 -32 -14.312 -32 -32 l 0 -96 c 0 -17.688 14.312 -32 32 -32 l 96 0 c 17.688 0 32 14.312 32 32 l -41.094 41.062 l 105.281 105.312 L 178.375 192.188 Z M 480 480 l -96 0 c -17.688 0 -32 -14.328 -32 -32 l 41.094 -41.094 L 287.812 301.625 l 45.812 -45.812 l 105.281 105.266 L 480 320 c 17.688 0 32 14.312 32 32 L 512 448 C 512 465.672 497.688 480 480 480 Z M 480 128 l -41.094 -41.094 L 333.625 192.188 l -45.812 -45.812 l 105.281 -105.312 L 352 0 c 0 -17.688 14.312 -32 32 -32 l 96 0 c 17.688 0 32 14.312 32 32 l 0 96 C 512 113.688 497.688 128 480 128 Z M 160 448 c 0 17.672 -14.312 32 -32 32 L 32 480 C 14.312 480 0 465.672 0 448 l 0 -96 c 0 -17.688 14.312 -32 32 -32 l 41.094 41.078 l 105.281 -105.266 l 45.812 45.812 L 118.906 406.906 L 160 448 Z" data-tags="expand, maximize, fullscreen, arrows" />
<glyph unicode="&#xe009;" d="M 480 320 l -41.094 41.078 L 333.625 255.812 l -45.812 45.812 L 393.094 406.906 L 352 448 c 0 17.672 14.312 32 32 32 l 96 0 c 17.688 0 32 -14.328 32 -32 l 0 -96 C 512 334.312 497.688 320 480 320 Z M 160 0 c 0 -17.688 -14.312 -32 -32 -32 L 32 -32 c -17.688 0 -32 14.312 -32 32 l 0 96 c 0 17.688 14.312 32 32 32 l 41.094 -41.094 l 105.281 105.281 l 45.812 -45.812 L 118.906 41.062 L 160 0 Z" data-tags="maximize, resize, arrows, expand" />
<glyph unicode="&#xe00a;" d="M 497.914 -17.913 c -18.783 -18.782 -49.225 -18.782 -68.008 0 l -84.863 84.863 c -34.888 -22.382 -76.13 -35.717 -120.659 -35.717 C 100.469 31.233 0 131.687 0 255.617 S 100.469 480 224.384 480 c 123.931 0 224.384 -100.452 224.384 -224.383 c 0 -44.514 -13.352 -85.771 -35.718 -120.676 l 84.864 -84.863 C 516.695 31.296 516.695 0.869 497.914 -17.913 Z M 224.384 415.891 c -88.511 0 -160.274 -71.747 -160.274 -160.273 s 71.763 -160.274 160.274 -160.274 c 88.526 0 160.274 71.748 160.274 160.274 S 312.91 415.891 224.384 415.891 Z" data-tags="search, find, lookup, magnifier" />
<glyph unicode="&#xe00b;" d="M 497.914 -17.914 c -18.783 -18.781 -49.226 -18.781 -68.008 0 l -84.863 84.864 c -34.889 -22.366 -76.131 -35.718 -120.66 -35.718 C 100.468 31.232 0 131.686 0 255.616 S 100.468 480 224.383 480 c 123.931 0 224.384 -100.453 224.384 -224.384 c 0 -44.529 -13.352 -85.771 -35.718 -120.675 l 84.864 -84.848 C 516.695 31.311 516.695 0.869 497.914 -17.914 Z M 224.383 415.89 c -88.511 0 -160.274 -71.763 -160.274 -160.274 c 0 -88.526 71.763 -160.274 160.274 -160.274 c 88.527 0 160.274 71.748 160.274 160.274 C 384.657 344.127 312.91 415.89 224.383 415.89 Z M 256.438 159.452 l -64.109 0 l 0 64.109 l -64.109 0 l 0 64.109 l 64.109 0 l 0 64.11 l 64.109 0 l 0 -64.11 l 64.11 0 l 0 -64.109 l -64.11 0 L 256.438 159.452 Z" data-tags="zoom in, magnifier, enlarge" />
<glyph unicode="&#xe00c;" d="M 497.914 50.094 l -84.864 84.848 c 22.366 34.903 35.718 76.146 35.718 120.675 C 448.768 379.547 348.314 480 224.383 480 C 100.468 480 0 379.547 0 255.616 s 100.468 -224.384 224.383 -224.384 c 44.529 0 85.771 13.352 120.66 35.718 l 84.863 -84.864 c 18.782 -18.781 49.225 -18.781 68.008 0 C 516.695 0.869 516.695 31.311 497.914 50.094 Z M 224.383 95.342 c -88.511 0 -160.274 71.748 -160.274 160.274 c 0 88.511 71.763 160.274 160.274 160.274 c 88.527 0 160.274 -71.763 160.274 -160.274 C 384.657 167.09 312.91 95.342 224.383 95.342 Z M 128.219 223.562 l 192.329 0 l 0 64.109 L 128.219 287.671 L 128.219 223.562 Z" data-tags="zoom out, magnifier" />
<glyph unicode="&#xe00d;" d="M 256 -32 C 114.625 -32 0 82.609 0 224 S 114.625 480 256 480 c 141.391 0 256 -114.609 256 -256 S 397.391 -32 256 -32 Z M 256 416 C 149.969 416 64 330.031 64 224 s 85.969 -192 192 -192 c 106.047 0 192 85.969 192 192 S 362.047 416 256 416 Z M 288 96 l -64 0 l 0 96 l -96 0 l 0 64 l 96 0 l 0 96 l 64 0 l 0 -96 l 96 0 l 0 -64 l -96 0 L 288 96 Z" data-tags="add, plus, sum" />
<glyph unicode="&#xe00e;" d="M 256 480 C 114.625 480 0 365.375 0 224 c 0 -141.391 114.625 -256 256 -256 c 141.391 0 256 114.609 256 256 C 512 365.375 397.391 480 256 480 Z M 256 32 c -106.031 0 -192 85.969 -192 192 S 149.969 416 256 416 c 106.047 0 192 -85.969 192 -192 S 362.047 32 256 32 Z M 128 192 l 256 0 l 0 64 L 128 256 L 128 192 Z" data-tags="subtract, remove, delete, minus" />
<glyph unicode="&#xe00f;" d="M 256 -32 C 114.625 -32 0 82.609 0 224 C 0 365.375 114.625 480 256 480 s 256 -114.625 256 -256 C 512 82.609 397.375 -32 256 -32 Z M 256 416 C 149.969 416 64 330.031 64 224 s 85.969 -192 192 -192 s 192 85.969 192 192 S 362.031 416 256 416 Z M 224 160 l 64 0 l 0 -64 l -64 0 L 224 160 Z M 224 352 l 64 0 l 0 -160 l -64 0 L 224 352 Z" data-tags="exclamation, warning, notification, notice" />
<glyph unicode="&#xe010;" d="M 256 -32 C 114.625 -32 0 82.609 0 224 C 0 365.375 114.625 480 256 480 s 256 -114.625 256 -256 C 512 82.609 397.375 -32 256 -32 Z M 256 416 C 149.969 416 64 330.031 64 224 s 85.969 -192 192 -192 s 192 85.969 192 192 S 362.031 416 256 416 Z M 256 352 c -53.031 0 -96 -42.984 -96 -96 l 64 0 c 0 17.672 14.312 32 32 32 s 32 -14.328 32 -32 s -14.312 -32 -32 -32 c -1.225 0 -5.108 0 -16 0 c -8.844 0 -16 -7.172 -16 -16 l 0 -48 l 64 0 l 0 5.875 c 37.188 13.219 64 48.391 64 90.125 C 352 309.016 309.031 352 256 352 Z M 256 128 L 224 128 L 224 96 L 256 96 L 288 96 L 288 128 Z" data-tags="question, help, support" />
<glyph unicode="&#xe011;" d="M 74.966 42.987 c -99.97 99.97 -99.97 262.066 0 362.037 c 100.002 99.97 262.067 99.97 362.068 0 c 99.97 -99.971 99.97 -262.067 0 -362.037 C 337.033 -56.998 174.968 -56.998 74.966 42.987 Z M 391.783 359.773 c -75.001 74.985 -196.565 74.985 -271.535 0 c -75.001 -74.985 -75.001 -196.55 0 -271.535 c 74.97 -74.986 196.534 -74.986 271.535 0 C 466.754 163.224 466.754 284.788 391.783 359.773 Z M 188.124 110.863 l -45.251 45.266 l 67.876 67.877 l -67.876 67.876 l 45.251 45.267 L 256 269.257 l 67.877 67.892 l 45.25 -45.267 l -67.876 -67.876 l 67.876 -67.877 l -45.25 -45.266 L 256 178.755 L 188.124 110.863 Z" data-tags="close, remove, cancel" />
<glyph unicode="&#xe012;" d="M 400 192 c -17.25 0 -33.406 -4.219 -48 -11.188 l 0 86.375 C 366.594 260.219 382.75 256 400 256 c 61.844 0 112 50.141 112 112 S 461.844 480 400 480 S 288 429.859 288 368 l 0 -48 l -64 0 l 0 48 C 224 429.859 173.844 480 112 480 S 0 429.859 0 368 s 50.156 -112 112 -112 c 17.25 0 33.406 4.219 48 11.188 l 0 -86.375 C 145.406 187.781 129.25 192 112 192 C 50.156 192 0 141.859 0 80 s 50.156 -112 112 -112 s 112 50.141 112 112 l 0 48 l 64 0 l 0 -48 c 0 -61.859 50.156 -112 112 -112 s 112 50.141 112 112 S 461.844 192 400 192 Z M 400 416 c 26.5 0 48 -21.484 48 -48 s -21.5 -48 -48 -48 s -48 21.484 -48 48 S 373.5 416 400 416 Z M 112 32 c -26.5 0 -48 21.484 -48 48 s 21.5 48 48 48 s 48 -21.484 48 -48 S 138.5 32 112 32 Z M 112 320 c -26.5 0 -48 21.484 -48 48 s 21.5 48 48 48 s 48 -21.484 48 -48 S 138.5 320 112 320 Z M 288 192 l -64 0 l 0 64 l 64 0 L 288 192 Z M 400 32 c -26.5 0 -48 21.484 -48 48 s 21.5 48 48 48 s 48 -21.484 48 -48 S 426.5 32 400 32 Z" data-tags="cmd, command" />
<glyph unicode="&#xe013;" d="M 256 -32 C 114.625 -32 0 82.625 0 224 C 0 365.391 114.625 480 256 480 s 256 -114.609 256 -256 C 512 82.625 397.375 -32 256 -32 Z M 64 224 c 0 -41.312 13.312 -79.312 35.531 -110.656 L 366.656 380.484 C 335.344 402.672 297.312 416 256 416 C 149.969 416 64 330.031 64 224 Z M 412.469 334.656 L 145.344 67.5 C 176.656 45.312 214.688 32 256 32 c 106.031 0 192 85.969 192 192 C 448 265.312 434.688 303.328 412.469 334.656 Z" data-tags="forbid, deny, blocked" />
<glyph unicode="&#xe014;" d="M 256 384 L 64 480 L 32 480 C 14.312 480 0 465.672 0 448 l 0 -352 c 0 -17.688 14.312 -32 32 -32 l 224 -96 l 224 96 c 17.688 0 32 14.312 32 32 L 512 448 c 0 17.672 -14.312 32 -32 32 l -32 0 M 224 48 L 64 128 L 64 384 l 160 -53.328 L 224 48 Z M 448 128 l -160 -80 L 288 330.672 L 448 384 L 448 128 Z" data-tags="book, read, bookmark" />
<glyph unicode="&#xe015;" d="M 480 192 l -64 0 c -17.688 0 -32 14.312 -32 32 s 14.312 32 32 32 l 64 0 c 17.688 0 32 -14.312 32 -32 S 497.688 192 480 192 Z M 391.75 314.5 c -12.5 -12.5 -32.75 -12.5 -45.25 0 s -12.5 32.75 0 45.25 L 391.75 405 c 12.5 12.5 32.75 12.5 45.25 0 s 12.5 -32.75 0 -45.25 L 391.75 314.5 Z M 256 -32 c -17.688 0 -32 14.312 -32 32 l 0 64 c 0 17.688 14.312 32 32 32 s 32 -14.312 32 -32 l 0 -64 C 288 -17.688 273.688 -32 256 -32 Z M 256 352 c -17.688 0 -32 14.312 -32 32 L 224 448 c 0 17.688 14.312 32 32 32 s 32 -14.312 32 -32 l 0 -64 C 288 366.312 273.688 352 256 352 Z M 120.25 43 c -12.5 -12.5 -32.75 -12.5 -45.25 0 c -12.5 12.469 -12.5 32.75 0 45.25 l 45.25 45.25 c 12.5 12.5 32.75 12.5 45.25 0 s 12.5 -32.75 0 -45.25 L 120.25 43 Z M 120.25 314.5 L 75 359.75 C 62.5 372.25 62.5 392.5 75 405 s 32.75 12.5 45.25 0 l 45.25 -45.25 c 12.5 -12.5 12.5 -32.75 0 -45.25 S 132.75 302 120.25 314.5 Z M 128 224 c 0 -17.688 -14.312 -32 -32 -32 L 32 192 c -17.688 0 -32 14.312 -32 32 s 14.312 32 32 32 l 64 0 C 113.688 256 128 241.688 128 224 Z M 391.75 133.5 L 437 88.25 c 12.5 -12.5 12.5 -32.781 0 -45.25 c -12.5 -12.5 -32.75 -12.5 -45.25 0 l -45.25 45.25 c -12.5 12.5 -12.5 32.75 0 45.25 S 379.25 146 391.75 133.5 Z" data-tags="spinner, loading, busy, wheel" />
<glyph unicode="&#xe016;" d="M 256 -32 C 114.625 -32 0 82.625 0 224 C 0 365.391 114.625 480 256 480 s 256 -114.609 256 -256 C 512 82.625 397.375 -32 256 -32 Z M 256 416 C 149.969 416 64 330.031 64 224 s 85.969 -192 192 -192 s 192 85.969 192 192 S 362.031 416 256 416 Z M 192 320 l 160 -96 l -160 -96 L 192 320 Z" data-tags="play, media control, video, movie" />
<glyph unicode="&#xe017;" d="M 256 -32 C 114.625 -32 0 82.625 0 224 C 0 365.391 114.625 480 256 480 s 256 -114.609 256 -256 C 512 82.625 397.375 -32 256 -32 Z M 256 416 C 149.969 416 64 330.031 64 224 s 85.969 -192 192 -192 s 192 85.969 192 192 S 362.031 416 256 416 Z M 192 288 l 128 0 l 0 -128 L 192 160 L 192 288 Z" data-tags="stop, media control" />
<glyph unicode="&#xe018;" d="M 256 480 C 114.625 480 0 365.391 0 224 c 0 -141.375 114.625 -256 256 -256 s 256 114.625 256 256 C 512 365.391 397.375 480 256 480 Z M 256 32 c -106.031 0 -192 85.969 -192 192 S 149.969 416 256 416 s 192 -85.969 192 -192 S 362.031 32 256 32 Z M 160 160 l 64 0 L 224 288 l -64 0 L 160 160 Z M 288 160 l 64 0 L 352 288 l -64 0 L 288 160 Z" data-tags="pause, media control" />
<glyph unicode="&#xe019;" d="M 256 480 C 114.625 480 0 365.391 0 224 c 0 -141.375 114.625 -256 256 -256 s 256 114.625 256 256 C 512 365.391 397.375 480 256 480 Z M 256 32 c -106.031 0 -192 85.969 -192 192 S 149.969 416 256 416 s 192 -85.969 192 -192 S 362.031 32 256 32 Z M 384 224 L 256 320 L 256 248 L 160 320 L 160 128 L 256 200 L 256 128 Z" data-tags="forward, media control" />
<glyph unicode="&#xe01a;" d="M 256 480 C 114.625 480 0 365.375 0 224 c 0 -141.391 114.625 -256 256 -256 s 256 114.609 256 256 C 512 365.375 397.375 480 256 480 Z M 256 32 c -106.031 0 -192 85.969 -192 192 S 149.969 416 256 416 s 192 -85.969 192 -192 S 362.031 32 256 32 Z M 128 224 L 256 128 L 256 200 L 352 128 L 352 320 L 256 248 L 256 320 Z" data-tags="rewind, media  control" />
<glyph unicode="&#xe01b;" d="M 408.208 329.356 c -12.985 -12.954 -33.994 -12.954 -46.98 0 c -12.955 12.955 -12.955 33.995 0 46.981 l 93.931 93.931 c 12.986 12.955 33.995 12.955 46.981 0 c 12.954 -12.955 12.954 -33.995 0 -46.98 L 408.208 329.356 Z M 255.871 -31.727 L 128.008 96.137 L 32.11 96.137 c -17.669 0 -31.966 14.298 -31.966 31.967 L 0.144 319.898 c 0 17.668 14.297 31.966 31.966 31.966 l 95.897 0 L 255.871 479.728 c 0 0 31.966 3.996 31.966 -31.966 c 0 -191.233 0 -478.926 0 -447.522 C 287.837 -35.722 255.871 -31.727 255.871 -31.727 Z M 223.905 351.864 l -63.932 -63.932 L 64.076 287.932 l 0 -127.863 l 95.897 0 l 63.932 -63.933 L 223.905 351.864 Z M 383.734 192.035 c -17.669 0 -31.966 14.297 -31.966 31.966 c 0 17.668 14.297 31.966 31.966 31.966 l 95.897 0 c 17.669 0 31.966 -14.298 31.966 -31.966 c 0 -17.669 -14.297 -31.966 -31.966 -31.966 L 383.734 192.035 Z M 408.208 118.645 l 93.932 -93.931 c 12.954 -12.986 12.954 -34.026 0 -46.981 c -12.986 -12.955 -33.995 -12.955 -46.981 0 l -93.931 93.931 c -12.955 12.986 -12.955 34.026 0 46.981 C 374.214 131.6 395.223 131.6 408.208 118.645 Z" data-tags="sound, speaker, volume" />
<glyph unicode="&#xe01c;" d="M 319.967 -23.497 l 0 67.34 C 394.335 70.267 447.9 140.543 447.9 224 c 0 83.426 -53.565 153.732 -127.934 180.156 L 319.966 471.497 C 430.254 443.012 511.868 343.188 511.868 224 S 430.254 4.957 319.967 -23.497 Z M 256 -31.868 L 128.066 96.065 L 32.115 96.065 c -17.678 0 -31.983 14.306 -31.983 31.983 L 0.132 319.95 c 0 17.679 14.306 31.983 31.983 31.983 l 95.951 0 L 256 479.867 c 0 0 31.983 3.998 31.983 -31.983 c 0 -72.899 0 -382.053 0 -447.769 C 287.983 -35.866 256 -31.868 256 -31.868 Z M 224.017 351.934 l -63.967 -63.967 L 64.099 287.967 l 0 -127.934 l 95.951 0 l 63.967 -63.968 L 224.017 351.934 Z M 415.917 224 c 0 -59.532 -40.854 -109.132 -95.95 -123.405 l 0 68.309 C 339.02 179.991 351.95 200.387 351.95 224 c 0 23.612 -12.931 44.008 -31.983 55.097 l 0 68.308 C 375.063 333.131 415.917 283.531 415.917 224 Z" data-tags="sound-alt, speaker, volume" />
<glyph unicode="&#xe01d;" d="M 511.603 176.274 l -47.694 -47.726 l -47.726 47.726 l -47.725 -47.726 l -47.694 47.726 L 368.458 224 l -47.694 47.725 l 47.694 47.726 l 47.725 -47.726 l 47.726 47.726 l 47.694 -47.726 L 463.908 224 L 511.603 176.274 Z M 256.266 -31.868 L 128.332 96.065 L 32.381 96.065 c -17.678 0 -31.983 14.306 -31.983 31.983 L 0.398 319.95 c 0 17.679 14.306 31.983 31.983 31.983 l 95.951 0 L 256.266 479.867 c 0 0 31.983 3.998 31.983 -31.983 c 0 -173.535 0 -425.718 0 -447.769 C 288.249 -35.866 256.266 -31.868 256.266 -31.868 Z M 224.282 351.934 l -63.967 -63.967 L 64.364 287.967 l 0 -127.934 l 95.951 0 l 63.967 -63.968 L 224.282 351.934 Z" data-tags="sound off, mute, volume, speaker" />
<glyph unicode="&#xe01e;" d="M 325.719 352.375 L 229.094 248.75 L 184.812 296.219 L 144 252.438 L 230.781 160.094 L 367.938 307.125 Z M 480 480 L 32 480 C 14.312 480 0 465.688 0 448 l 0 -448 c 0 -17.688 14.312 -32 32 -32 l 448 0 c 17.688 0 32 14.312 32 32 l 0 96 L 512 352 L 512 448 C 512 465.688 497.688 480 480 480 Z M 448 128 l -96 0 l 0 -96 L 160 32 l 0 96 L 64 128 L 64 320 L 64 416 l 96 0 l 192 0 l 96 0 L 448 128 Z" data-tags="task, checkmark, tick" />
<glyph unicode="&#xe01f;" d="M 480 480 L 32 480 C 14.312 480 0 465.688 0 448 l 0 -448 c 0 -17.688 14.312 -32 32 -32 l 448 0 c 17.688 0 32 14.312 32 32 l 0 96 L 512 352 L 512 448 C 512 465.688 497.688 480 480 480 Z M 448 128 l -96 0 l 0 -96 L 160 32 l 0 96 L 64 128 L 64 320 L 64 416 l 96 0 l 192 0 l 96 0 L 448 128 Z M 128 256 L 384 256 L 384 192 L 128 192 Z M 128 352 L 384 352 L 384 288 L 128 288 Z" data-tags="inbox, box, archive" />
<glyph unicode="&#xe020;" d="M 384 480 L 128 480 L 0 224 l 0 -224 c 0 -17.688 14.328 -32 32 -32 l 448 0 c 17.672 0 32 14.312 32 32 L 512 224 L 384 480 Z M 448 32 L 64 32 L 64 224 l 96 192 l 192 0 l 96 -192 L 448 32 Z M 320 352 L 192 352 L 128 224 L 192 224 L 192 160 L 320 160 L 320 224 L 384 224 Z" data-tags="inbox-alt, box" />
<glyph unicode="&#xe021;" d="M 479.999 416 L 32 416 C 14.329 416 0 401.688 0 384 l 0 -320 c 0 -17.688 14.329 -32 32 -32 l 447.999 0 C 497.671 32 512 46.312 512 64 L 512 384 C 512 401.688 497.671 416 479.999 416 Z M 416 352 L 256 224 L 96 352 L 416 352 Z M 448 96 L 64 96 L 64 320 l 192 -160 l 192 160 L 448 96 Z" data-tags="envelope, mail, email, contact" />
<glyph unicode="&#xe022;" d="M 480 -32 L 32 -32 c -17.672 0 -32 14.312 -32 32 L 0 448 C 0 465.688 14.328 480 32 480 l 320 0 l -64 -64 L 64 416 l 0 -384 l 384 0 L 448 256 l 64 64 l 0 -320 C 512 -17.688 497.672 -32 480 -32 Z M 128 96 l 0 96 L 416 480 l 32 0 l 64 -64 l 0 -32 L 224 96 L 128 96 Z M 272 208 L 448 384 l -32 32 L 240 240 L 272 208 Z M 192 192 l -32 -32 l 0 -32 l 32 0 l 32 32 L 192 192 Z" data-tags="compose, write, blog, edit" />
<glyph unicode="&#xe023;" d="M 128 128 L 288 128 L 288 96 L 128 96 Z M 128 192 L 288 192 L 288 160 L 128 160 Z M 128 352 L 288 352 L 288 224 L 128 224 Z M 480 416 l -96 0 L 384 480 L 32 480 C 14.312 480 0 465.672 0 448 l 0 -448 c 0 -17.688 14.312 -32 32 -32 l 448 0 c 17.688 0 32 14.312 32 32 L 512 384 C 512 401.672 497.688 416 480 416 Z M 448 32 L 64 32 L 64 416 l 288 0 l 0 -320 l 32 0 L 384 352 l 64 0 L 448 32 Z" data-tags="newspaper, paper" />
<glyph unicode="&#xe024;" d="M 480 480 L 96 480 C 78.312 480 64 465.672 64 448 l 0 -32 L 32 416 C 14.312 416 0 401.672 0 384 l 0 -384 c 0 -17.688 14.312 -32 32 -32 l 448 0 c 17.688 0 32 14.312 32 32 L 512 448 C 512 465.672 497.688 480 480 480 Z M 128 32 L 64 32 L 64 352 l 64 0 L 128 32 Z M 448 32 L 192 32 l 0 32 L 192 352 L 192 416 l 256 0 L 448 32 Z M 256 352 L 384 352 L 384 288 L 256 288 Z M 256 160 L 384 160 L 384 96 L 256 96 Z M 256 256 L 384 256 L 384 192 L 256 192 Z" data-tags="newspaper-alt, paper" />
<glyph unicode="&#xe025;" d="M 480 -32 L 32 -32 c -17.688 0 -32 14.312 -32 32 L 0 448 C 0 465.672 14.312 480 32 480 l 64 0 l 0 -64 L 64 416 l 0 -384 l 384 0 L 448 416 l -32 0 L 416 480 l 64 0 c 17.688 0 32 -14.328 32 -32 l 0 -448 C 512 -17.688 497.688 -32 480 -32 Z M 128 352 l 32 0 L 160 448 l 64 0 L 224 480 l 64 0 l 0 -32 l 64 0 l 0 -96 l 32 0 l 0 -256 L 128 96 L 128 352 Z M 288 416 l -64 0 l 0 -32 l 64 0 L 288 416 Z M 192 160 l 128 0 L 320 288 L 192 288 L 192 160 Z" data-tags="clipboard" />
<glyph unicode="&#xe026;" d="M 416 480 l -64 0 l 0 -64 l 64 0 L 416 480 Z M 480 480 l -32 0 l 0 -96 L 320 384 L 320 480 L 192 480 l 0 -96 L 64 384 L 64 480 L 32 480 C 14.312 480 0 465.672 0 448 l 0 -448 c 0 -17.688 14.312 -32 32 -32 l 448 0 c 17.688 0 32 14.312 32 32 L 512 448 C 512 465.672 497.688 480 480 480 Z M 448 32 L 64 32 L 64 320 l 384 0 L 448 32 Z M 160 480 L 96 480 l 0 -64 l 64 0 L 160 480 Z M 288 256 l -64 0 l 0 -64 l 64 0 L 288 256 Z M 384 256 l -64 0 l 0 -64 l 64 0 L 384 256 Z M 192 160 l -64 0 l 0 -64 l 64 0 L 192 160 Z M 192 256 l -64 0 l 0 -64 l 64 0 L 192 256 Z M 288 160 l -64 0 l 0 -64 l 64 0 L 288 160 Z M 384 160 l -64 0 l 0 -64 l 64 0 L 384 160 Z" data-tags="calendar, date, schedule, time" />
<glyph unicode="&#xe027;" d="M 503.466 347.732 L 379.733 471.466 c -11.38 11.379 -29.855 11.379 -41.234 0 L 214.767 347.732 c -11.411 -11.379 -11.411 -29.854 0 -41.265 l 20.601 -20.601 L 359.101 409.599 l 82.499 -82.499 L 317.867 203.367 l 20.632 -20.632 c 11.379 -11.38 29.854 -11.38 41.234 0 l 123.732 123.732 C 514.845 317.878 514.845 336.354 503.466 347.732 Z M 276.633 162.134 L 152.9 38.4 l -82.499 82.499 l 123.732 123.733 l -20.632 20.632 c -11.379 11.38 -29.854 11.38 -41.233 0 L 8.534 141.532 c -11.379 -11.41 -11.379 -29.886 0 -41.265 l 123.733 -123.733 c 11.379 -11.379 29.854 -11.379 41.233 0 l 123.733 123.733 c 11.41 11.379 11.41 29.854 0 41.265 L 276.633 162.134 Z M 173.501 141.532 c 11.411 -11.41 29.854 -11.41 41.266 0 l 123.732 123.732 c 11.379 11.38 11.379 29.824 0 41.203 c -11.41 11.41 -29.854 11.41 -41.265 0 L 173.501 182.735 C 162.122 171.355 162.122 152.911 173.501 141.532 Z" data-tags="hyperlink, link, chain" />
<glyph unicode="&#xe028;" d="M 288 256 L 352 256 L 352 96 L 288 96 Z M 480 384 L 352 384 L 352 448 c 0 17.688 -14.312 32 -32 32 L 192 480 c -17.688 0 -32 -14.312 -32 -32 l 0 -64 L 32 384 c -17.688 0 -32 -14.312 -32 -32 l 0 -32 l 32 0 l 0 -320 c 0 -17.688 14.312 -32 32 -32 l 384 0 c 17.688 0 32 14.312 32 32 L 480 320 l 32 0 l 0 32 C 512 369.688 497.688 384 480 384 Z M 224 416 l 64 0 l 0 -32 l -64 0 L 224 416 Z M 416 32 L 96 32 L 96 320 l 320 0 L 416 32 Z M 160 256 L 224 256 L 224 96 L 160 96 Z" data-tags="trash, remove, delete, garbage" />
<glyph unicode="&#xe029;" d="M 480 384 L 352 384 L 352 448 c 0 17.688 -14.312 32 -32 32 L 192 480 c -17.688 0 -32 -14.312 -32 -32 l 0 -64 L 32 384 c -17.688 0 -32 -14.312 -32 -32 l 0 -32 l 64 0 l 0 -320 c 0 -17.688 14.312 -32 32 -32 l 320 0 c 17.688 0 32 14.312 32 32 L 448 320 l 64 0 l 0 32 C 512 369.688 497.688 384 480 384 Z M 224 416 l 64 0 l 0 -32 l -64 0 L 224 416 Z M 384 32 L 128 32 L 128 320 l 256 0 L 384 32 Z" data-tags="trash-alt, remove, delete, garbage" />
<glyph unicode="&#xe02a;" d="M 192 192 L 32 192 c -17.688 0 -32 -14.312 -32 -32 l 0 -160 c 0 -17.688 14.312 -32 32 -32 l 160 0 c 17.688 0 32 14.312 32 32 L 224 160 C 224 177.688 209.688 192 192 192 Z M 160 32 L 64 32 l 0 96 l 96 0 L 160 32 Z M 192 480 L 32 480 C 14.312 480 0 465.688 0 448 l 0 -160 c 0 -17.688 14.312 -32 32 -32 l 160 0 c 17.688 0 32 14.312 32 32 L 224 448 C 224 465.688 209.688 480 192 480 Z M 160 320 L 64 320 L 64 416 l 96 0 L 160 320 Z M 480 192 L 320 192 c -17.688 0 -32 -14.312 -32 -32 l 0 -160 c 0 -17.688 14.312 -32 32 -32 l 160 0 c 17.688 0 32 14.312 32 32 L 512 160 C 512 177.688 497.688 192 480 192 Z M 448 32 l -96 0 l 0 96 l 96 0 L 448 32 Z M 480 480 L 320 480 c -17.688 0 -32 -14.312 -32 -32 l 0 -160 c 0 -17.688 14.312 -32 32 -32 l 160 0 c 17.688 0 32 14.312 32 32 L 512 448 C 512 465.688 497.688 480 480 480 Z M 448 320 l -96 0 L 352 416 l 96 0 L 448 320 Z" data-tags="grid, apps, squares, blocks" />
<glyph unicode="&#xe02b;" d="M 480 -32 L 32 -32 c -17.688 0 -32 14.312 -32 32 L 0 448 C 0 465.688 14.312 480 32 480 l 448 0 c 17.688 0 32 -14.312 32 -32 l 0 -448 C 512 -17.688 497.688 -32 480 -32 Z M 448 416 L 64 416 l 0 -384 l 384 0 L 448 416 Z M 224 256 l -96 0 l 0 96 l 96 0 L 224 256 Z M 224 96 l -96 0 l 0 96 l 96 0 L 224 96 Z M 384 256 l -96 0 l 0 96 l 96 0 L 384 256 Z M 384 96 l -96 0 l 0 96 l 96 0 L 384 96 Z" data-tags="grid-alt, squares, apps" />
<glyph unicode="&#xe02c;" d="M 128 160 L 384 160 L 384 96 L 128 96 Z M 128 256 L 384 256 L 384 192 L 128 192 Z M 480 480 L 32 480 C 14.312 480 0 465.688 0 448 l 0 -448 c 0 -17.688 14.312 -32 32 -32 l 448 0 c 17.688 0 32 14.312 32 32 L 512 448 C 512 465.688 497.688 480 480 480 Z M 448 32 L 64 32 L 64 416 l 384 0 L 448 32 Z M 128 352 L 384 352 L 384 288 L 128 288 Z" data-tags="menu, list, options, nav" />
<glyph unicode="&#xe02d;" d="M 128 352 L 192 352 L 192 288 L 128 288 Z M 128 256 L 192 256 L 192 192 L 128 192 Z M 128 160 L 192 160 L 192 96 L 128 96 Z M 256 160 L 384 160 L 384 96 L 256 96 Z M 480 480 L 32 480 C 14.312 480 0 465.688 0 448 l 0 -448 c 0 -17.688 14.312 -32 32 -32 l 448 0 c 17.688 0 32 14.312 32 32 L 512 448 C 512 465.688 497.688 480 480 480 Z M 448 32 L 64 32 L 64 416 l 384 0 L 448 32 Z M 256 256 L 384 256 L 384 192 L 256 192 Z M 256 352 L 384 352 L 384 288 L 256 288 Z" data-tags="list, ul, options" />
<glyph unicode="&#xe02e;" d="M 480 480 L 224 480 c -17.688 0 -32 -14.312 -32 -32 l 0 -256 c 0 -17.688 14.312 -32 32 -32 l 256 0 c 17.688 0 32 14.312 32 32 L 512 448 C 512 465.688 497.688 480 480 480 Z M 448 224 L 256 224 L 256 416 l 192 0 L 448 224 Z M 256 32 L 64 32 L 64 224 l 64 0 l 0 64 L 32 288 c -17.688 0 -32 -14.312 -32 -32 l 0 -256 c 0 -17.688 14.312 -32 32 -32 l 256 0 c 17.688 0 32 14.312 32 32 l 0 96 l -64 0 L 256 32 Z" data-tags="gallery, popup, popout" />
<glyph unicode="&#xe02f;" d="M 448 480 L 64 480 C 46.312 480 32 465.688 32 448 l 0 -448 c 0 -17.688 14.312 -32 32 -32 l 384 0 c 17.688 0 32 14.312 32 32 L 480 448 C 480 465.688 465.688 480 448 480 Z M 160 32 L 96 32 l 0 64 l 64 0 L 160 32 Z M 160 128 L 96 128 l 0 64 l 64 0 L 160 128 Z M 160 224 L 96 224 l 0 64 l 64 0 L 160 224 Z M 288 32 l -64 0 l 0 64 l 64 0 L 288 32 Z M 288 128 l -64 0 l 0 64 l 64 0 L 288 128 Z M 288 224 l -64 0 l 0 64 l 64 0 L 288 224 Z M 416 32 l -64 0 l 0 64 l 64 0 L 416 32 Z M 416 128 l -64 0 l 0 64 l 64 0 L 416 128 Z M 416 224 l -64 0 l 0 64 l 64 0 L 416 224 Z M 416 352 L 96 352 L 96 416 l 320 0 L 416 352 Z" data-tags="calculator, math, arithmetic" />
<glyph unicode="&#xe030;" d="M 480 96 l -32 0 L 448 416 L 128 416 L 128 448 c 0 17.688 14.312 32 32 32 l 320 0 c 17.688 0 32 -14.312 32 -32 l 0 -320 C 512 110.312 497.688 96 480 96 Z M 416 352 l 0 -352 c 0 -17.688 -14.312 -32 -32 -32 L 32 -32 c -17.688 0 -32 14.312 -32 32 L 0 352 c 0 17.688 14.312 32 32 32 l 352 0 C 401.688 384 416 369.688 416 352 Z M 352 320 L 64 320 l 0 -96 l 288 0 L 352 320 Z M 352 160 L 64 160 l 0 -128 l 288 0 L 352 160 Z M 128 256 L 96 256 l 0 32 l 32 0 L 128 256 Z M 192 256 l -32 0 l 0 32 l 32 0 L 192 256 Z M 320 256 l -96 0 l 0 32 l 96 0 L 320 256 Z" data-tags="windows" />
<glyph unicode="&#xe031;" d="M 480 -32 L 32 -32 c -17.688 0 -32 14.312 -32 32 L 0 448 C 0 465.688 14.312 480 32 480 l 448 0 c 17.688 0 32 -14.312 32 -32 l 0 -448 C 512 -17.688 497.688 -32 480 -32 Z M 448 416 L 64 416 l 0 -96 l 384 0 L 448 416 Z M 448 256 L 64 256 l 0 -224 l 384 0 L 448 256 Z M 128 352 L 96 352 L 96 384 l 32 0 L 128 352 Z M 192 352 l -32 0 L 160 384 l 32 0 L 192 352 Z M 416 352 L 224 352 L 224 384 l 192 0 L 416 352 Z" data-tags="browser" />
<glyph unicode="&#xe032;" d="M 448.035 223.953 c 0 106.051 -85.953 192.035 -192.035 192.035 c -106.051 0 -192.035 -85.984 -192.035 -192.035 c 0 -66.687 34.005 -125.43 85.613 -159.857 l -53.482 -53.463 L 138.666 -32 l 69.842 69.843 c 15.19 -3.865 31.1 -5.925 47.492 -5.925 c 16.394 0 32.305 2.059 47.493 5.923 L 373.334 -32 l 42.57 42.633 l -53.477 53.457 C 414.039 98.517 448.035 157.264 448.035 223.953 Z M 256 95.93 c -70.7 0 -128.023 57.322 -128.023 128.023 c 0 70.7 57.323 128.023 128.023 128.023 s 128.023 -57.323 128.023 -128.023 C 384.023 153.252 326.7 95.93 256 95.93 Z M 448.035 480 c -35.351 0 -64.012 -28.662 -64.012 -64.012 c 0 -2.909 0.213 -5.768 0.589 -8.574 c 21.307 -14.963 39.885 -33.542 54.849 -54.849 c 2.807 -0.376 5.665 -0.588 8.574 -0.588 c 35.351 0 64.012 28.661 64.012 64.012 C 512.047 451.338 483.386 480 448.035 480 Z M 72.539 352.565 c 14.963 21.307 33.542 39.886 54.849 54.849 c 0.376 2.807 0.588 5.665 0.588 8.574 C 127.977 451.338 99.315 480 63.965 480 S -0.047 451.338 -0.047 415.988 c 0 -35.351 28.661 -64.012 64.012 -64.012 C 66.874 351.977 69.732 352.189 72.539 352.565 Z M 288.006 255.959 L 288.006 319.971 L 223.994 319.971 L 223.994 191.947 L 320.012 191.947 L 320.012 255.959 Z" data-tags="alarm, clock, time, notification" />
<glyph unicode="&#xe033;" d="M 288 256 L 288 352 L 224 352 L 224 192 L 352 192 L 352 256 Z M 256 480 C 114.625 480 0 365.375 0 224 s 114.625 -256 256 -256 s 256 114.625 256 256 S 397.375 480 256 480 Z M 256 32 c -106.031 0 -192 85.969 -192 192 S 149.969 416 256 416 s 192 -85.969 192 -192 S 362.031 32 256 32 Z" data-tags="clock, time" />
<glyph unicode="&#xe034;" d="M 288 -28.781 L 288 -32 l -64 0 l 0 3.219 C 115.562 -13.125 32 79.25 32 192 L 32 320 C 32 408.375 103.625 480 192 480 c 77.406 0 145.156 -54.969 160 -128 l 0 0 l 0 -160 c 0 -53.031 -43 -96 -96 -96 s -96 42.969 -96 96 L 160 320 c 0 17.688 14.312 32 32 32 s 32 -14.312 32 -32 l 0 -128 c 0 -17.688 14.312 -32 32 -32 s 32 14.312 32 32 L 288 352 c 0 0 -20.656 64 -96 64 c -53 0 -96 -42.969 -96 -96 l 0 -128 c 0 -88.375 71.625 -160 160 -160 l 0 0 c 88.375 0 160 71.625 160 160 L 416 448 c 0 17.688 14.312 32 32 32 s 32 -14.312 32 -32 l 0 -256 C 480 79.25 396.438 -13.125 288 -28.781 Z" data-tags="attachment, paperclip" />
<glyph unicode="&#xe035;" d="M 512 256 l 0 -64 l -66.906 0 c -4.781 -28.344 -16.047 -54.375 -31.828 -77.031 l 67.109 -58.344 l -46.188 -57.062 l -73.984 64.344 c -21.547 -14 -45.812 -24.219 -72.203 -28.688 L 288 -32 l -64 0 l 0 66.906 c -26.469 4.469 -50.766 14.781 -72.328 28.906 l -73.859 -64.25 l -46.188 57.062 l 67.219 58.469 C 83.188 137.719 72 163.688 67.219 192 L 0 192 l 0 64 l 66.906 0 c 4.781 28.344 16.047 54.375 31.828 77.031 L 31.625 391.375 l 46.188 57.062 l 73.984 -64.344 c 21.547 14 45.812 24.219 72.203 28.688 L 224 480 l 64 0 l 0 -67.219 c 26.391 -4.469 50.656 -14.688 72.203 -28.688 l 73.984 64.344 l 46.188 -57.062 l -67.109 -58.344 c 15.781 -22.656 27.047 -48.688 31.828 -77.031 L 512 256 Z M 256 320 c -53.016 0 -96 -42.969 -96 -96 s 42.984 -96 96 -96 s 96 42.969 96 96 S 309.016 320 256 320 Z" data-tags="settings, cog, gear, options, preferences" />
<glyph unicode="&#xe036;" d="M 480 384 L 352 384 L 352 448 c 0 17.688 -14.328 32 -32 32 L 192 480 c -17.672 0 -32 -14.312 -32 -32 l 0 -64 L 32 384 c -17.672 0 -32 -14.312 -32 -32 l 0 -352 c 0 -17.688 14.328 -32 32 -32 l 448 0 c 17.672 0 32 14.312 32 32 L 512 352 C 512 369.688 497.672 384 480 384 Z M 224 416 l 64 0 l 0 -32 l -64 0 L 224 416 Z M 448 32 L 64 32 L 64 160 l 128 0 l 0 -32 l 128 0 l 0 32 l 128 0 L 448 32 Z M 448 192 L 320 192 l 0 32 L 192 224 l 0 -32 L 64 192 L 64 320 l 128 0 l 128 0 l 128 0 L 448 192 Z" data-tags="portfolio, briefcase, suitcase, work, business" />
<glyph unicode="&#xe037;" d="M 381.844 234.594 C 383.031 241.562 384 248.656 384 256 l 0 96 C 384 422.688 326.688 480 256 480 S 128 422.688 128 352 l 0 -96 c 0 -7.344 0.969 -14.438 2.156 -21.406 C 52.719 207.094 0 155.625 0 96 l 0 -96 c 0 -17.688 14.312 -32 32 -32 l 448 0 c 17.688 0 32 14.312 32 32 l 0 96 C 512 155.625 459.281 207.094 381.844 234.594 Z M 192 352 c 0 35.344 28.656 64 64 64 s 64 -28.656 64 -64 l 0 -96 c 0 -35.344 -28.656 -64 -64 -64 s -64 28.656 -64 64 L 192 352 Z M 448 32 L 64 32 l 0 64 c 0 34.562 36.812 64.594 91.594 81.5 C 179.031 147.562 215.062 128 256 128 s 76.969 19.562 100.406 49.5 C 411.188 160.594 448 130.562 448 96 L 448 32 Z" data-tags="user, profile, avatar" />
<glyph unicode="&#xe038;" d="M 288 174.25 L 288 256 c 0 53.031 -42.969 96 -96 96 s -96 -42.969 -96 -96 l 0 -81.75 C 38.844 152.062 0 111.25 0 64 c 0 -5.656 0 -64 0 -64 c 0 -17.688 14.312 -32 32 -32 l 320 0 c 17.688 0 32 14.312 32 32 c 0 0 0 58.344 0 64 C 384 111.25 345.156 152.062 288 174.25 Z M 160 256 c 0 17.688 14.312 32 32 32 s 32 -14.312 32 -32 l 0 -96 c 0 -17.688 -14.312 -32 -32 -32 s -32 14.312 -32 32 L 160 256 Z M 320 32 L 64 32 l 0 32 c 0 19.438 17.719 36.656 45.094 48.406 C 125.688 83.594 156.406 64 192 64 s 66.312 19.594 82.906 48.406 C 302.281 100.656 320 83.438 320 64 L 320 32 Z M 416 302.25 L 416 384 c 0 53.031 -42.969 96 -96 96 s -96 -42.969 -96 -96 l 0 -4.531 c 25.281 -6.531 47.312 -20.531 64 -39.625 L 288 384 c 0 17.688 14.312 32 32 32 s 32 -14.312 32 -32 l 0 -96 c 0 -17.688 -14.312 -32 -32 -32 l 0 -64 c 35.594 0 66.312 19.594 82.906 48.406 C 430.281 228.656 448 211.438 448 192 l 0 -32 L 331.219 160 c 32.219 -16.594 56.969 -38.5 71.062 -64 L 480 96 c 17.688 0 32 14.312 32 32 c 0 0 0 58.344 0 64 C 512 239.25 473.156 280.062 416 302.25 Z" data-tags="users, group, team, profiles, people" />
<glyph unicode="&#xe039;" d="M 512 288 c 0 -141.969 -256 -320 -256 -320 S 0 146.031 0 288 c -0.281 14.156 1.188 30.031 0 48 C -5.281 415.344 64.469 480 144 480 c 45.531 0 85.625 -31.031 112 -64 c 26.375 32.969 66.469 64 112 64 c 79.531 0 149.281 -64.656 144 -144 C 510.812 318.031 512.281 302.156 512 288 Z M 448 336 c 3.969 44 -35.812 80 -80 80 c -82.906 0 -80 -64 -80 -64 c 0 -17.688 -14.312 -32 -32 -32 s -32 14.312 -32 32 c 0 0 2.906 64 -80 64 c -44.188 0 -83.969 -36 -80 -80 c 1.625 -18.062 -1.031 -34.625 0.438 -48 c -0.031 0 -0.375 0 -0.438 0 c 2 0.469 -11 -94.281 191.625 -239.219 c 0.156 0.094 0.25 0.188 0.375 0.281 c 0.125 -0.094 0.219 -0.188 0.375 -0.281 C 459 193.719 446 288.469 448 288 c -0.062 0 -0.406 0 -0.438 0 C 449.031 301.375 446.375 317.938 448 336 Z" data-tags="heart, love, like, favorite" />
<glyph unicode="&#xe03a;" d="M 304 480 l -96 0 C 93.125 480 0 386.875 0 272 c 0 -74.438 39.406 -139.25 98.188 -176 L 96 96 l 0 -128 l 144 96 l 64 0 c 114.875 0 208 93.125 208 208 S 418.875 480 304 480 Z M 304 128 l -64 0 l -80 -48 l 0 56.812 C 104.188 156.656 64 209.406 64 272 c 0 79.531 64.469 144 144 144 l 96 0 c 79.531 0 144 -64.469 144 -144 S 383.531 128 304 128 Z" data-tags="chat, comment, bubble, talk" />
<glyph unicode="&#xe03b;" d="M 128 256 L 384 256 L 384 192 L 128 192 Z M 128 352 L 384 352 L 384 288 L 128 288 Z M 480 480 L 32 480 C 14.312 480 0 465.688 0 448 l 0 -352 c 0 -17.688 14.312 -32 32 -32 l 64 0 l 0 -96 l 144 96 l 240 0 c 17.688 0 32 14.312 32 32 L 512 448 C 512 465.688 497.688 480 480 480 Z M 448 128 L 240 128 l -80 -48 l 0 48 L 64 128 L 64 416 l 384 0 L 448 128 Z" data-tags="comments, chat, talk, bubble" />
<glyph unicode="&#xe03c;" d="M 480 480 L 32 480 C 14.328 480 0 465.688 0 448 l 0 -352 c 0 -17.688 14.328 -32 32 -32 l 192 0 l 0 -32 l -96 0 c -17.672 0 -32 -14.312 -32 -32 l 0 -32 l 320 0 l 0 32 c 0 17.688 -14.328 32 -32 32 l -96 0 l 0 32 l 192 0 c 17.672 0 32 14.312 32 32 L 512 448 C 512 465.688 497.672 480 480 480 Z M 448 128 L 64 128 L 64 416 l 384 0 L 448 128 Z" data-tags="screen, display, monitor, pc, computer, desktop" />
<glyph unicode="&#xe03d;" d="M 416 480 L 96 480 C 78.328 480 64 465.688 64 448 l 0 -448 c 0 -17.688 14.328 -32 32 -32 l 320 0 c 17.672 0 32 14.312 32 32 L 448 448 C 448 465.688 433.672 480 416 480 Z M 384 96 L 128 96 L 128 416 l 256 0 L 384 96 Z" data-tags="iphone, mobile, phone, contact" />
<glyph unicode="&#xe03e;" d="M 480 480 L 32 480 C 14.328 480 0 465.688 0 448 l 0 -448 c 0 -17.688 14.328 -32 32 -32 l 448 0 c 17.672 0 32 14.312 32 32 L 512 448 C 512 465.688 497.672 480 480 480 Z M 448 96 L 64 96 L 64 416 l 384 0 L 448 96 Z" data-tags="ipad, tablet, mobile" />
<glyph unicode="&#xe03f;" d="M 224 480 c -17.672 0 -32 -14.312 -32 -32 l 0 -160 l -32 0 L 160 448 c 0 17.688 -14.328 32 -32 32 S 96 465.688 96 448 l 0 -160 L 64 288 L 64 448 C 64 465.688 49.672 480 32 480 S 0 465.688 0 448 l 0 -192 c 0 -17.688 14.328 -32 32 -32 l 64 0 l 0 -224 c 0 -17.688 14.328 -32 32 -32 s 32 14.312 32 32 L 160 224 l 64 0 c 17.672 0 32 14.312 32 32 L 256 448 C 256 465.688 241.672 480 224 480 Z M 416 480 c -53.016 0 -96 -42.969 -96 -96 c 0 -41.75 26.797 -76.906 64 -90.125 L 384 0 c 0 -17.688 14.328 -32 32 -32 s 32 14.312 32 32 L 448 293.875 c 37.203 13.219 64 48.375 64 90.125 C 512 437.031 469.016 480 416 480 Z" data-tags="fork and spoon, lunch, food, restaurant, meal, dinner" />
<glyph unicode="&#xe040;" d="M 224 480 c -17.672 0 -32 -14.312 -32 -32 l 0 -160 l -32 0 L 160 448 c 0 17.688 -14.328 32 -32 32 S 96 465.688 96 448 l 0 -160 L 64 288 L 64 448 C 64 465.688 49.672 480 32 480 S 0 465.688 0 448 l 0 -192 c 0 -17.688 14.328 -32 32 -32 l 64 0 l 0 -224 c 0 -17.688 14.328 -32 32 -32 s 32 14.312 32 32 L 160 224 l 64 0 c 17.672 0 32 14.312 32 32 L 256 448 C 256 465.688 241.672 480 224 480 Z M 448 480 c 0 0 -64 -20.656 -64 -96 l 0 -64 c 0 -41.75 26.797 -76.906 64 -90.125 L 448 0 c 0 -17.688 14.328 -32 32 -32 s 32 14.312 32 32 L 512 474.125 L 512 480 L 448 480 Z" data-tags="fork and knife, lunch, food, restaurant, meal, dinner" />
<glyph unicode="&#xe041;" d="M 480 480 L 32 480 C 14.312 480 0 465.688 0 448 l 0 -448 c 0 -17.688 14.312 -32 32 -32 l 448 0 c 17.688 0 32 14.312 32 32 L 512 448 C 512 465.688 497.688 480 480 480 Z M 192 224 c 0 0 5.062 64 64 64 s 64 -64 64 -64 s 1.844 -64 -64 -64 S 192 224 192 224 Z M 448 32 L 64 32 L 64 256 l 64 0 l 4.531 0 c -2.656 -10.281 -4.531 -20.875 -4.531 -32 c 0 -70.688 57.312 -128 128 -128 s 128 57.312 128 128 c 0 11.125 -1.875 21.719 -4.531 32 L 384 256 l 64 0 L 448 32 Z M 448 320 l -96 0 L 352 416 l 96 0 L 448 320 Z" data-tags="instagram, social" />
<glyph unicode="&#xe042;" d="M 480 -32 L 32 -32 c -17.688 0 -32 14.312 -32 32 L 0 448 C 0 465.688 14.312 480 32 480 l 448 0 c 17.688 0 32 -14.312 32 -32 l 0 -448 C 512 -17.688 497.688 -32 480 -32 Z M 448 416 L 64 416 l 0 -384 l 384 0 L 448 416 Z M 256 288 c 0 35.281 29.188 64 59.438 64 L 352 352 l 0 -64 l -32 0 l 0 -32 l 32 0 l 0 -64 l -32 0 l 0 -96 l -64 0 l 0 96 l -32 0 l 0 64 l 32 0 L 256 288 Z" data-tags="facebook, social" />
<glyph unicode="&#xe043;" d="M 480 480 L 32 480 C 14.312 480 0 465.688 0 448 l 0 -448 c 0 -17.688 14.312 -32 32 -32 l 448 0 c 17.688 0 32 14.312 32 32 L 512 448 C 512 465.688 497.688 480 480 480 Z M 448 32 L 256 32 L 256 224 L 64 224 L 64 416 l 192 0 l 0 -192 l 192 0 L 448 32 Z" data-tags="delicious, social" />
<glyph unicode="&#xe044;" d="M 64 192 L 0 192 l 0 -192 c 0 -17.688 14.312 -32 32 -32 l 192 0 l 0 64 L 64 32 L 64 192 Z M 64 416 l 160 0 L 224 480 L 32 480 C 14.312 480 0 465.688 0 448 l 0 -192 l 64 0 L 64 416 Z M 448 32 L 288 32 l 0 -64 l 192 0 c 17.688 0 32 14.312 32 32 L 512 192 l -64 0 L 448 32 Z M 480 480 L 288 480 l 0 -64 l 160 0 l 0 -160 l 64 0 L 512 448 C 512 465.688 497.688 480 480 480 Z M 288 256 L 288 352 L 224 352 L 224 256 L 128 256 L 128 192 L 224 192 L 224 96 L 288 96 L 288 192 L 384 192 L 384 256 Z" data-tags="googleplus, social, gplus" />
<glyph unicode="&#xe045;" d="M 256 480 C 114.615 480 0 365.385 0 224 s 114.615 -256 256 -256 s 256 114.615 256 256 S 397.385 480 256 480 Z M 256 428.812 c 47.562 0 90.812 -16.906 125.562 -44.125 c -16.156 -13.938 -50.875 -40.375 -103.938 -65.438 c -19.562 34.531 -42.594 69.531 -70.125 103.156 C 223.125 426.219 239.219 428.812 256 428.812 Z M 168.938 408.719 c 15.5 -21.062 41 -58.375 67.906 -106 c -57.469 -18.844 -123.875 -19.469 -175.25 -15.344 C 79.25 341 118.375 384.812 168.938 408.719 Z M 253.25 272.719 c 7.188 -13.75 14.281 -28.562 21.281 -43.594 c -107.312 -23.531 -157.562 -93.969 -177.656 -132.594 c -28.156 35.062 -45.688 79 -45.688 127.469 c 0 9.062 0.812 17.906 1.969 26.625 C 93.531 245.031 165 242.844 253.25 272.719 Z M 292.281 187.812 c 19.156 -46.812 35.969 -97.531 45.781 -151.25 c -25.156 -11.031 -52.844 -17.375 -82.062 -17.375 c -48.594 0 -92.625 17.656 -127.75 45.906 C 179.094 135.781 238.031 171.438 292.281 187.812 Z M 374.719 57.656 c -2.594 14.656 -13.781 69.438 -40.281 139.562 c 62.031 9.188 111.25 -2.938 123.312 -6.438 C 448.719 136.031 418.062 88.656 374.719 57.656 Z M 318.969 235.469 c -7.438 17.281 -15.438 34.938 -24.781 53.125 c 37.062 16.031 76.438 37.938 117.219 67.375 c 30.375 -35.719 49.406 -81.406 49.406 -131.969 C 406.188 236.125 359.438 238.781 318.969 235.469 Z" data-tags="dribbble, social" />
<glyph unicode="&#xe046;" d="M 256 480 C 149.969 480 64 394.031 64 288 s 192 -320 192 -320 s 192 213.969 192 320 S 362.031 480 256 480 Z M 256 160 c -70.688 0 -128 57.312 -128 128 S 185.312 416 256 416 s 128 -57.312 128 -128 S 326.688 160 256 160 Z" data-tags="pin, location, map, marker" />
<glyph unicode="&#xe047;" d="M 256 480 C 149.969 480 64 394.031 64 288 s 192 -320 192 -320 s 192 213.969 192 320 S 362.031 480 256 480 Z M 256 160 c -70.688 0 -128 57.312 -128 128 S 185.312 416 256 416 s 128 -57.312 128 -128 S 326.688 160 256 160 Z M 256 352 c -35.344 0 -64 -28.656 -64 -64 s 28.656 -64 64 -64 s 64 28.656 64 64 S 291.344 352 256 352 Z" data-tags="pin-alt, location, map, marker" />
<glyph unicode="&#xe048;" d="M 480 384 L 352 384 L 352 448 c 0 17.656 -14.328 32 -32 32 L 192 480 c -17.672 0 -32 -14.344 -32 -32 l 0 -64 L 96 384 L 96 416 L 32 416 l 0 -32 c -17.672 0 -32 -14.344 -32 -32 l 0 -352 c 0 -17.688 14.328 -32 32 -32 l 448 0 c 17.672 0 32 14.312 32 32 L 512 352 C 512 369.656 497.672 384 480 384 Z M 224 416 l 64 0 l 0 -32 l -64 0 L 224 416 Z M 448 32 L 64 32 L 64 320 l 384 0 L 448 32 Z M 256 96 c 53.016 0 96 42.969 96 96 s -42.984 96 -96 96 s -96 -42.969 -96 -96 S 202.984 96 256 96 Z M 256 224 c 17.672 0 32 -14.312 32 -32 s -14.328 -32 -32 -32 s -32 14.312 -32 32 S 238.328 224 256 224 Z" data-tags="camera, photo, images, pictures" />
<glyph unicode="&#xe049;" d="M 32 256 c -17.672 0 -32 -14.312 -32 -32 s 14.328 -32 32 -32 s 32 14.312 32 32 S 49.672 256 32 256 Z M 96 352 c 17.672 0 32 14.312 32 32 s -14.328 32 -32 32 S 64 401.688 64 384 S 78.328 352 96 352 Z M 256 416 c 17.672 0 32 14.312 32 32 c 0 17.656 -14.328 32 -32 32 s -32 -14.344 -32 -32 C 224 430.312 238.328 416 256 416 Z M 96 96 c -17.672 0 -32 -14.312 -32 -32 s 14.328 -32 32 -32 s 32 14.312 32 32 S 113.672 96 96 96 Z M 416 96 c -17.672 0 -32 -14.312 -32 -32 s 14.328 -32 32 -32 s 32 14.312 32 32 S 433.672 96 416 96 Z M 256 352 c -70.688 0 -128 -57.312 -128 -128 s 57.312 -128 128 -128 s 128 57.312 128 128 S 326.688 352 256 352 Z M 256 160 c -35.344 0 -64 28.656 -64 64 s 28.656 64 64 64 s 64 -28.656 64 -64 S 291.344 160 256 160 Z M 480 256 c -17.672 0 -32 -14.312 -32 -32 s 14.328 -32 32 -32 s 32 14.312 32 32 S 497.672 256 480 256 Z M 256 32 c -17.672 0 -32 -14.344 -32 -32 c 0 -17.688 14.328 -32 32 -32 s 32 14.312 32 32 C 288 17.656 273.672 32 256 32 Z M 416 352 c 17.672 0 32 14.312 32 32 s -14.328 32 -32 32 s -32 -14.312 -32 -32 S 398.328 352 416 352 Z" data-tags="brightness, sun" />
<glyph unicode="&#xe04a;" d="M 256 352 c -70.688 0 -128 -57.312 -128 -128 s 57.312 -128 128 -128 s 128 57.312 128 128 S 326.688 352 256 352 Z M 256 160 c -35.344 0 -64 28.656 -64 64 s 28.656 64 64 64 L 256 160 Z M 256 416 c 17.672 0 32 14.312 32 32 c 0 17.656 -14.328 32 -32 32 s -32 -14.344 -32 -32 C 224 430.312 238.328 416 256 416 Z M 96 352 c 17.672 0 32 14.312 32 32 s -14.328 32 -32 32 S 64 401.688 64 384 S 78.328 352 96 352 Z M 32 256 c -17.672 0 -32 -14.312 -32 -32 s 14.328 -32 32 -32 s 32 14.312 32 32 S 49.672 256 32 256 Z M 96 96 c -17.672 0 -32 -14.312 -32 -32 s 14.328 -32 32 -32 s 32 14.312 32 32 S 113.672 96 96 96 Z M 256 32 c -17.672 0 -32 -14.344 -32 -32 c 0 -17.688 14.328 -32 32 -32 s 32 14.312 32 32 C 288 17.656 273.672 32 256 32 Z M 416 96 c -17.672 0 -32 -14.312 -32 -32 s 14.328 -32 32 -32 s 32 14.312 32 32 S 433.672 96 416 96 Z M 480 256 c -17.672 0 -32 -14.312 -32 -32 s 14.328 -32 32 -32 s 32 14.312 32 32 S 497.672 256 480 256 Z M 416 352 c 17.672 0 32 14.312 32 32 s -14.328 32 -32 32 s -32 -14.312 -32 -32 S 398.328 352 416 352 Z" data-tags="brightness-half, contrast" />
<glyph unicode="&#xe04b;" d="M 255.843 367.964 c 0.062 -79.524 64.464 -143.988 143.987 -143.988 c 42.684 0 80.649 18.936 108.615 62.745 c 4.719 -0.844 3.688 -43.309 3.375 -62.745 c -2.281 -141.363 -114.615 -255.978 -255.978 -255.978 c -141.363 0 -255.979 114.615 -255.979 255.978 S 114.479 478.079 255.843 479.954 c 16.874 0.219 34.653 -0.312 63.433 -1.719 C 301.37 459.956 255.812 415.616 255.843 367.964 Z M 191.848 319.968 c 0 34.591 11.218 66.401 29.873 92.555 c -89.68 -16.155 -157.861 -94.21 -157.861 -188.546 c 0 -106.021 85.961 -191.984 191.983 -191.984 c 94.335 0 172.392 68.182 188.546 157.861 c -26.154 -18.654 -57.963 -29.871 -92.555 -29.871 C 263.467 159.982 191.848 231.601 191.848 319.968 Z" data-tags="moon, night" />
<glyph unicode="&#xe04c;" d="M 400 352 c -5.594 0 -10.844 -1.125 -16.312 -1.656 C 346.875 408.844 282.219 448 208 448 C 93.125 448 0 354.875 0 240 l 0 -32 c 0 -109.406 84.75 -199.719 192 -208 l 224 0 c 89.594 8.188 160 84.281 160 176 C 576 273.188 497.188 352 400 352 Z M 416 64 L 192 64 c -17.906 2 -34.656 8.75 -49.969 16.688 c -0.312 0.156 -0.594 0.344 -0.906 0.5 c -7.156 3.781 -13.938 8.031 -20.312 12.938 c -0.938 0.688 -1.781 1.469 -2.688 2.188 c -5.625 4.531 -11 9.312 -15.906 14.656 c -1.562 1.656 -2.875 3.531 -4.344 5.281 C 93.906 121 90 125.812 86.656 131.062 c -1.969 3.062 -3.469 6.375 -5.188 9.562 c -2.406 4.5 -4.938 8.844 -6.844 13.594 c -2 4.844 -3.25 10 -4.688 15.094 c -1.031 3.594 -2.375 7 -3.125 10.719 C 65.031 189.062 64 198.406 64 208 l 0 32 c 0 79.531 64.469 144 144 144 c 10.75 0 21.156 -1.375 31.25 -3.625 c 2.062 -0.469 4 -1.312 6.031 -1.875 c 8.188 -2.188 16.125 -4.938 23.656 -8.469 c 1.281 -0.625 2.469 -1.375 3.75 -2.031 c 8.281 -4.188 16.031 -9.125 23.312 -14.781 c 0.344 -0.281 0.688 -0.562 1.062 -0.844 c 24.531 -19.5 42.562 -46.531 50.312 -77.938 C 363.062 282.938 380.875 288 400 288 c 61.844 0 112 -50.156 112 -112 C 512 119.625 470.219 71.812 416 64 Z" horiz-adv-x="576" data-tags="cloud, weather" />
<glyph unicode="&#xe04d;" d="M 256 -32 C 114.625 -32 0 82.625 0 224 S 114.625 480 256 480 s 256 -114.625 256 -256 S 397.375 -32 256 -32 Z M 256 416 C 149.969 416 64 330.031 64 224 s 85.969 -192 192 -192 s 192 85.969 192 192 S 362.031 416 256 416 Z M 256 96 c -70.688 0 -128 57.312 -128 128 s 57.312 128 128 128 s 128 -57.312 128 -128 S 326.688 96 256 96 Z" data-tags="circle-full" />
<glyph unicode="&#xe04e;" d="M 256 -32 C 114.625 -32 0 82.625 0 224 S 114.625 480 256 480 s 256 -114.625 256 -256 S 397.375 -32 256 -32 Z M 256 416 C 149.969 416 64 330.031 64 224 s 85.969 -192 192 -192 s 192 85.969 192 192 S 362.031 416 256 416 Z M 128 224 c 0 70.688 57.312 128 128 128 l 0 -256 C 185.312 96 128 153.312 128 224 Z" data-tags="circle-half, contrast" />
<glyph unicode="&#xe04f;" d="M 256 -32 C 114.625 -32 0 82.625 0 224 S 114.625 480 256 480 s 256 -114.625 256 -256 S 397.375 -32 256 -32 Z M 256 416 C 149.969 416 64 330.031 64 224 s 85.969 -192 192 -192 s 192 85.969 192 192 S 362.031 416 256 416 Z M 350.094 108.594 l -5.625 -3.281 l -16.25 -9.906 l -9.594 -6.969 c -7.125 -3.406 -14.562 -6.094 -22.25 -8.375 L 296.375 89.5 l -2.719 21.719 c 0 0 -1.344 12.531 -3.375 15.812 c -2.031 3.312 -6.781 7.938 -11.531 9.906 s -8.125 1.969 -10.844 5.25 c -2.719 3.312 -4.75 9.25 -8.125 14.5 c -3.406 5.281 -7.469 10.562 -7.469 13.188 s 0 29.656 0 29.656 l 3.406 25.031 l 7.438 5.281 l 8.812 9.875 l 6.094 1.969 l 21 -3.938 l 14.906 0 l 6.125 -12.531 l 14.219 -11.188 l 8.812 -13.844 l 11.5 -3.938 L 367.5 196.248 l 8.812 -10.562 l 5.438 -11.188 l 2.031 -7.906 l 0 -13.188 l -1.406 -7.781 C 373.781 131.531 362.875 119.125 350.094 108.594 Z M 297.719 335.938 l -14.906 -7.906 l -5.406 -15.156 l -8.812 -7.906 l -29.156 0 l -13.531 -5.281 l -0.688 -10.531 l -5.406 -8.562 l -1.375 -9.25 l 2.719 -7.906 l 3.375 -7.906 c 0 0 8.156 -9.219 0 -15.812 c 0 0 -10.156 0 -12.188 3.312 c -2.031 3.281 -16.938 12.5 -19.656 15.156 c -2.688 2.625 -11.5 5.25 -11.5 5.25 l -10.844 3.969 l -10.156 0.656 l 0.656 13.844 l -0.656 11.844 l -4.094 8.562 l -11.5 8.594 l -0.688 9.219 l 1.406 5.125 c 27.438 26.531 65.25 42.969 107 42.969 c 23.562 0 45.594 -5.656 65.5 -14.969 l -0.438 -3.469 L 297.719 335.938 Z" data-tags="globe, earth, world" />
<glyph unicode="&#xe050;" d="M 0 480 L 512 -32 L 0 -32 Z" horiz-adv-x="0" />
<glyph unicode="&#x20;" horiz-adv-x="256" />
</font>
</defs>
</svg>
